name ./resultDataOpenSim/trcMotMarkerGrf/sub10/grf-01-04.mot
datacolumns 19
datarows 27
range 0.93200000 1.03600000
endheader

                time	     ground_force_vx	     ground_force_vy	     ground_force_vz	     ground_force_px	     ground_force_py	     ground_force_pz	   l_ground_force_vx	   l_ground_force_vy	   l_ground_force_vz	   l_ground_force_px	   l_ground_force_py	   l_ground_force_pz	     ground_torque_x	     ground_torque_y	     ground_torque_z	   l_ground_torque_x	   l_ground_torque_y	   l_ground_torque_z	
          0.93200000	          0.00000000	          0.00000000	          0.00000000	          0.00000000	          0.00000000	          0.00000000	         -4.01601075	        373.15977275	         11.32159718	          0.02323920	          0.00000000	         -0.11378913	          0.00000000	          0.00000000	          0.00000000	          0.00000000	         -1.63989777	          0.00000000	
          0.93600000	          0.00000000	          0.00000000	          0.00000000	          0.00000000	          0.00000000	          0.00000000	         -2.46855221	        380.13893849	         12.01569709	          0.02484110	          0.00000000	         -0.11324361	          0.00000000	          0.00000000	          0.00000000	          0.00000000	         -1.69810915	          0.00000000	
          0.94000000	          0.00000000	          0.00000000	          0.00000000	          0.00000000	          0.00000000	          0.00000000	         -0.82889908	        388.23444172	         12.84437105	          0.02641843	          0.00000000	         -0.11269813	          0.00000000	          0.00000000	          0.00000000	          0.00000000	         -1.76554912	          0.00000000	
          0.94400000	          0.00000000	          0.00000000	          0.00000000	          0.00000000	          0.00000000	          0.00000000	          0.94416218	        397.40668973	         13.75910775	          0.02788576	          0.00000000	         -0.11222909	          0.00000000	          0.00000000	          0.00000000	          0.00000000	         -1.84757859	          0.00000000	
          0.94800000	          0.00000000	          0.00000000	          0.00000000	          0.00000000	          0.00000000	          0.00000000	          2.87539078	        407.63238966	         14.68484806	          0.02910605	          0.00000000	         -0.11194428	          0.00000000	          0.00000000	          0.00000000	          0.00000000	         -1.94920976	          0.00000000	
          0.95200000	          0.00000000	          0.00000000	          0.00000000	          0.00000000	          0.00000000	          0.00000000	          4.98245380	        418.94574744	         15.54615286	          0.02998889	          0.00000000	         -0.11190672	          0.00000000	          0.00000000	          0.00000000	          0.00000000	         -2.07412412	          0.00000000	
          0.95600000	          0.00000000	          0.00000000	          0.00000000	          0.00000000	          0.00000000	          0.00000000	          7.27715665	        431.45747475	         16.29222403	          0.03056499	          0.00000000	         -0.11205821	          0.00000000	          0.00000000	          0.00000000	          0.00000000	         -2.22405327	          0.00000000	
          0.96000000	          0.00000000	          0.00000000	          0.00000000	          0.00000000	          0.00000000	          0.00000000	          9.74952146	        445.29804820	         16.90666145	          0.03093222	          0.00000000	         -0.11226214	          0.00000000	          0.00000000	          0.00000000	          0.00000000	         -2.39874587	          0.00000000	
          0.96400000	          0.00000000	          0.00000000	          0.00000000	          0.00000000	          0.00000000	          0.00000000	         12.36456449	        460.52297034	         17.39284909	          0.03118541	          0.00000000	         -0.11239114	          0.00000000	          0.00000000	          0.00000000	          0.00000000	         -2.59638353	          0.00000000	
          0.96800000	          0.00000000	          0.00000000	          0.00000000	          0.00000000	          0.00000000	          0.00000000	         15.07815953	        477.05378255	         17.75421425	          0.03139730	          0.00000000	         -0.11238279	          0.00000000	          0.00000000	          0.00000000	          0.00000000	         -2.81410423	          0.00000000	
          0.97200000	          0.00000000	          0.00000000	          0.00000000	          0.00000000	          0.00000000	          0.00000000	         17.85079966	        494.69711716	         17.99616431	          0.03161170	          0.00000000	         -0.11225850	          0.00000000	          0.00000000	          0.00000000	          0.00000000	         -3.04839504	          0.00000000	
          0.97600000	          0.00000000	          0.00000000	          0.00000000	          0.00000000	          0.00000000	          0.00000000	         20.65238533	        513.23034291	         18.13733251	          0.03185469	          0.00000000	         -0.11208415	          0.00000000	          0.00000000	          0.00000000	          0.00000000	         -3.29534229	          0.00000000	
          0.98000000	          0.00000000	          0.00000000	          0.00000000	          0.00000000	          0.00000000	          0.00000000	         23.46595682	        532.49346648	         18.20981630	          0.03214253	          0.00000000	         -0.11191226	          0.00000000	          0.00000000	          0.00000000	          0.00000000	         -3.55082125	          0.00000000	
          0.98400000	          0.00000000	          0.00000000	          0.00000000	          0.00000000	          0.00000000	          0.00000000	         26.30437236	        552.41421405	         18.24921557	          0.03248966	          0.00000000	         -0.11175140	          0.00000000	          0.00000000	          0.00000000	          0.00000000	         -3.81065568	          0.00000000	
          0.98800000	          0.00000000	          0.00000000	          0.00000000	          0.00000000	          0.00000000	          0.00000000	         29.23230727	        572.95214859	         18.27877572	          0.03291924	          0.00000000	         -0.11158140	          0.00000000	          0.00000000	          0.00000000	          0.00000000	         -4.07074339	          0.00000000	
          0.99200000	          0.00000000	          0.00000000	          0.00000000	          0.00000000	          0.00000000	          0.00000000	         32.36387098	        594.05090769	         18.30324734	          0.03345027	          0.00000000	         -0.11138902	          0.00000000	          0.00000000	          0.00000000	          0.00000000	         -4.32714418	          0.00000000	
          0.99600000	          0.00000000	          0.00000000	          0.00000000	          0.00000000	          0.00000000	          0.00000000	         35.83297540	        615.64767691	         18.32384527	          0.03405603	          0.00000000	         -0.11117752	          0.00000000	          0.00000000	          0.00000000	          0.00000000	         -4.57611181	          0.00000000	
          1.00000000	          0.00000000	          0.00000000	          0.00000000	          0.00000000	          0.00000000	          0.00000000	         39.75685866	        637.67158455	         18.35421322	          0.03469499	          0.00000000	         -0.11095760	          0.00000000	          0.00000000	          0.00000000	          0.00000000	         -4.81409619	          0.00000000	
          1.00400000	          0.00000000	          0.00000000	          0.00000000	          0.00000000	          0.00000000	          0.00000000	         44.21234527	        660.00964990	         18.42207939	          0.03535048	          0.00000000	         -0.11072892	          0.00000000	          0.00000000	          0.00000000	          0.00000000	         -5.03782960	          0.00000000	
          1.00800000	          0.00000000	          0.00000000	          0.00000000	          0.00000000	          0.00000000	          0.00000000	         49.23373140	        682.50006749	         18.55898218	          0.03602949	          0.00000000	         -0.11049693	          0.00000000	          0.00000000	          0.00000000	          0.00000000	         -5.24459416	          0.00000000	
          1.01200000	          0.00000000	          0.00000000	          0.00000000	          0.00000000	          0.00000000	          0.00000000	         54.81995279	        704.98622453	         18.77766157	          0.03672360	          0.00000000	         -0.11027199	          0.00000000	          0.00000000	          0.00000000	          0.00000000	         -5.43262061	          0.00000000	
          1.01600000	          0.00000000	          0.00000000	          0.00000000	          0.00000000	          0.00000000	          0.00000000	         60.93715655	        727.38010036	         19.05359508	          0.03740984	          0.00000000	         -0.11005006	          0.00000000	          0.00000000	          0.00000000	          0.00000000	         -5.60141428	          0.00000000	
          1.02000000	          0.00000000	          0.00000000	          0.00000000	          0.00000000	          0.00000000	          0.00000000	         67.51893460	        749.63691650	         19.32808437	          0.03808182	          0.00000000	         -0.10982418	          0.00000000	          0.00000000	          0.00000000	          0.00000000	         -5.75177249	          0.00000000	
          1.02400000	          0.00000000	          0.00000000	          0.00000000	          0.00000000	          0.00000000	          0.00000000	         74.47376637	        771.66932163	         19.51887681	          0.03876436	          0.00000000	         -0.10958944	          0.00000000	          0.00000000	          0.00000000	          0.00000000	         -5.88538314	          0.00000000	
          1.02800000	          0.00000000	          0.00000000	          0.00000000	          0.00000000	          0.00000000	          0.00000000	         81.70608790	        793.33692751	         19.53450657	          0.03948863	          0.00000000	         -0.10933578	          0.00000000	          0.00000000	          0.00000000	          0.00000000	         -6.00410246	          0.00000000	
          1.03200000	          0.00000000	          0.00000000	          0.00000000	          0.00000000	          0.00000000	          0.00000000	         89.14525430	        814.50578102	         19.30174180	          0.04025693	          0.00000000	         -0.10905528	          0.00000000	          0.00000000	          0.00000000	          0.00000000	         -6.10917746	          0.00000000	
          1.03600000	          0.00000000	          0.00000000	          0.00000000	          0.00000000	          0.00000000	          0.00000000	         96.75769041	        835.05749422	         18.78937730	          0.04104478	          0.00000000	         -0.10873931	          0.00000000	          0.00000000	          0.00000000	          0.00000000	         -6.20069168	          0.00000000	
